<?xml version="1.0" encoding="utf-8"?>
<!-- Generator: Adobe Illustrator 21.0.0, SVG Export Plug-In . SVG Version: 6.00 Build 0)  -->
<svg version="1.1" id="Layer_1" xmlns="http://www.w3.org/2000/svg" xmlns:xlink="http://www.w3.org/1999/xlink" x="0px" y="0px"
	 viewBox="0 0 7200 7200" style="enable-background:new 0 0 7200 7200;" xml:space="preserve">
<g>
	<path d="M1884.6,4449.7c-4.6,127.2,3.5,252.7-18.1,375.8c-21.4,122-32.9,248.6-106.6,355.4c-40.6-9.5-51-40.4-63.1-66.2
		c-45.7-97.8-88.8-196.8-132.8-295.4c-16-35.8-19.4-72.2-9.4-111c50.4-195.6,84.9-394.6,122.6-592.8c18.3-96.2,38.3-192,57.9-288
		c3.1-15.4,4.5-32.2,22.4-43c43.4-0.4,52.9,34.9,60.9,67.1c21.7,87.4,34.4,176.4,40.5,266.3c4.5,67.5,10,134.9,15.8,211.7
		c518.7-135.5,1038.8-249.7,1566-376.6c-39.9-172-78.9-339.8-117.1-504.5c-24.6-14.3-43.8-2.8-61.9,2.2
		c-298.6,82.1-602.5,143.7-900,229.7c-33.2,9.6-57.8,4.8-81.1-19.4c-42.6-44.3-82.7-90.2-116.2-150.4
		c374-108.8,748.4-188,1117.5-296.6c-46.9-169-54.3-339.6-94.9-499.6c-18.5-12.8-31.9-6-45.1-2.9
		c-206.6,46.9-413.6,92.5-619.6,141.7c-54.3,13-97.5,4.4-137.8-32.9c-36.3-33.6-77.7-61.6-116.6-104.9
		c300.4-75.6,594.9-145.9,895.4-229.2c-24.5-201.6-54.6-401.4-83.6-604.3c-71.6,2.8-134.8,21.9-198.9,33.1
		c-123.9,21.6-247.9,44.1-369.8,74.7c-79,19.8-142.1,5-196.1-52.4c-35.2-37.4-74.1-71.8-108.3-122.4
		c278.2-76.1,554.6-136.5,830.6-207.5c1.6-63.7-12.7-121.9-20-180.5c-29.4-235.8-64.3-470.9-89.8-707.1
		c-15.7-145-38.3-289.2-51-434.5c-4.9-56.6,9.4-66.5,65.5-49.9c109.4,32.3,214.6,76.1,321.3,116c46.9,17.6,90.5,41.9,131.8,70.7
		c27.3,19,38.2,42,38.6,75.5c0.7,72.4-11,143.6-17.8,215c-8,83.7-11.2,167.6-15.6,251.3c-8.9,171.7-21.6,343.3-19,515.4
		c0.2,11.8-1.3,24.2,8.3,37.1c20.3,8.6,40.9-3,61.2-7.8c231.4-55.1,463-109.5,693.5-168.2c55.5-14.1,93.8-5.4,132.2,37.7
		c58.2,65.3,124.2,123.7,166.6,205.9c-47.9,30-100.1,41.5-152.5,51.8c-288.1,56.4-576.1,113-864.5,167.6
		c-36.1,6.8-45.6,23.3-45,56.4c2.6,143.9,4,287.8,23.4,430.7c5.8,42.7-3.4,88,21.2,131.9c71.5-17.6,141.1-34.4,210.7-51.8
		c162.9-40.6,325.3-83.1,490.3-114.8c27.7-5.3,54.1-10.5,65.8-43.2c8.1-22.7,29.6-23.9,50.9-18.4c143.1,37.1,288.3,66.9,424.7,126.3
		c64.6,28.1,67.7,33.2,43.3,97.8c-9.8,26.1-22.7,51.2-36,75.8c-78.6,146.1-157.8,291.9-236.6,438c-6.6,12.2-11.7,25.1-18.5,39.9
		c21.7,26.5,44.3,51.7,64.1,79c35.9,49.7,23.5,89.8-34.6,104c-159.2,38.9-319.2,74.5-478.5,113.2c-133.7,32.5-266.8,67.4-408,103.2
		c39.4,177.3,77.7,349.6,116.5,524.6c70.1-4.8,130.7-24.9,192.3-38.3c283.1-61.6,566.1-124.1,848.9-187.4
		c169.6-38,338.8-78.3,508.2-117.1c17.8-4.1,36.3-7.4,49.1-20.5c31.9-32.6,67.5-30.5,104.7-13.3c141.5,65.6,283.6,130.3,405.4,230.6
		c10.8,8.9,21.6,17.8,31.4,27.8c39.3,39.9,44.8,82.2,15,130.3c-22.2,35.8-49.9,67.1-81.6,95.3c-209.4,186.4-444.9,331.2-700.4,445.3
		c-107.7,48.1-214.6,97.6-327.5,132.4c-17.9,5.5-35.9,19.8-61.3,2.5c143.6-245.9,308.5-478.8,452.1-728
		c-56.9-5.5-1275.6,261.4-1354.9,295c-0.4,27.4,12.9,52.5,20.2,78.7c115,412.3,306.3,790.5,535.8,1147.9
		c166.3,259,378.1,480.7,641.9,646.6c74.7,47,154.4,85.3,237.4,114.4c101.4,35.6,201.6,23.7,295.4-28.6
		c80.6-44.9,154.5-99.2,220.3-164.6c39.1-38.9,75.3-81.5,120.7-112.2c26.2,17.8,15.5,38.9,13.4,57.4
		c-32.2,282.3-81.5,561.5-151.9,836.8c-12.4,48.4-21.8,97.9-38.4,144.8c-30.3,85.8-84.5,115.2-173,93.4
		c-128.3-31.5-238-101.5-346.5-173.5c-287.3-190.6-514.9-440.9-721.1-713.7c-180.3-238.6-333.9-494-468.8-759.5
		c-100.3-197.4-194.9-398.7-271.7-607.3c-3.3-9-6.6-18.9-17-23.6c-17.7-0.1-21.8,15.7-29,26.5c-122.9,185-258.3,360.9-394.3,536.3
		c-181.9,234.6-379.4,454.6-616.4,635.4c-158,120.5-332.6,213.8-514.8,292.8c-51.3,22.3-101.7,46.8-152.6,69.9
		c-117.7,53.4-242.8,78.6-369.8,96.4c-9.6,1.3-19.7,4.6-28.7-10.6c20.8-25.7,51-42,79.9-56.6c171.1-86.8,312.1-215.7,463.8-329.3
		c205-153.4,398.5-321,583.9-497.5c120.2-114.5,227.2-241.6,336.2-366.7c134.3-154.1,250.3-321.8,365.6-490.1
		c58-84.7,96.8-179.2,140.1-271.4c19.7-42-8.3-75.8-16.8-115.2c-62.6,5.8-120,22.5-177.9,36c-420.2,98.7-839.9,199.8-1255,318.4
		c-56.3,16.1-96.1,8.9-129.5-38.7C1924.8,4497.6,1904.1,4474.1,1884.6,4449.7z M3517.6,3155.1c213.6-47.6,413-113.5,618.3-155.2
		c23.6-4.8,30.9-21.3,35.9-42.2c12.6-52.8,14.8-107,17.9-160.5c5.9-101.1,8.9-202.5-9.9-308c-249.6,46-494.9,91.9-740.2,158.4
		C3459,2820.7,3474.2,2986.8,3517.6,3155.1z"/>
</g>
</svg>
