<?xml version="1.0" encoding="utf-8"?>
<!-- Generator: Adobe Illustrator 21.0.0, SVG Export Plug-In . SVG Version: 6.00 Build 0)  -->
<svg version="1.1" id="Layer_1" xmlns="http://www.w3.org/2000/svg" xmlns:xlink="http://www.w3.org/1999/xlink" x="0px" y="0px"
	 viewBox="0 0 401 401" style="enable-background:new 0 0 401 401;" xml:space="preserve">
<g>
	<path d="M230,237.3c11.9-9,22.7-19.2,31.7-31.1c14.8-19.6,26.2-40.8,28.7-66c1-9.7-0.1-18.9-2.6-28.1c-1-2.8-1.7-4.5-3.1-7.3
		c14.5,0.1,32.7,2.5,46.2,16.3c-5.9,35.1-24.2,63.9-48.6,89c0.8,2.7,3.1,2.7,4.9,3.3c14.6,4.2,28.8,9.4,43,14.8
		c5.7,2.2,8.3,6,9.5,11.1c2.4,9.9,3.6,20,3.4,30.2c0,0.4-0.4,0.9-0.8,1.8c-14.8-3.8-26.1-13.6-37.9-22.3
		c-11.8-8.7-21.8-19.6-30.9-31c-2.3,0-3.4,1.7-4.8,2.7c-10,7.8-20.7,14.5-32.6,19.1c-3.5,1.4-11.3,2.3-12.8,1.9
		C223.3,241.9,228.2,238.7,230,237.3z"/>
	<path d="M51.1,283.3c14.3-8.7,27.2-18.9,39.6-29.3c3.1-22.9,0.7-44.5-8.7-65.3c-2.4-5.4-5-10.6-7.6-15.9c-0.5-1.1-0.6-2.2,0.1-3.8
		c3,0.6,6.2,1.1,9.2,2c9.9,3,18.8,8.1,27.2,14.1c3.7,2.6,4.8,6.3,4.3,11c-1.4,12.9-4,25.7-6.5,38.4c-0.2,1.1-0.4,2.3-0.8,4.5
		c13.7-11.2,38.9-33.4,38.9-33.4c-1.4,3.8-2.6,7.7-4.2,11.5c-9.7,23.1-23.7,43.7-37.7,64.2c-5.8,8.4-12.5,16-18.7,24
		c-4.1,5.2-6,5.4-11,1.3C66.5,299.7,59.1,291.6,51.1,283.3z"/>
	<path d="M110.1,134.5c3.3,1,5.5,1.7,7.5,2.2c16.7,3.7,32.4,3.3,49.5,1.6c3.6-0.3,6.7-1,11.5-2.2c-9.5,15.9-20.8,29.3-34,41
		c-6.3,0.1-10.5-3.5-14.4-7.3c-6-5.8-10.9-12.5-15.1-19.8C112.4,145.1,111,139.9,110.1,134.5z"/>
</g>
</svg>
