<?xml version="1.0" encoding="utf-8"?>
<!-- Generator: Adobe Illustrator 21.0.0, SVG Export Plug-In . SVG Version: 6.00 Build 0)  -->
<svg version="1.1" id="Layer_1" xmlns="http://www.w3.org/2000/svg" xmlns:xlink="http://www.w3.org/1999/xlink" x="0px" y="0px"
	 viewBox="0 0 900 900" style="enable-background:new 0 0 900 900;" xml:space="preserve">
<g>
	<path d="M469.5,559.9c0,5.2,0,10.4,0,15.6c-0.5,49.5,0.7,99,2,148.4c0.5,20.2,2.4,40.4,2.7,60.6c0.4,28.2-5.1,55.1-18.7,80
		c-1.4,2.6-2.6,5.4-5.1,6.8c-2.6-0.3-3.1-2.2-3.9-3.6c-10.8-18.7-19.3-38.3-26.8-58.5c-1.2-3.2-1.5-6.3-1.2-9.6
		c1.1-10.9,2-21.9,3.6-32.7c2-13.6,2.6-27.3,3.5-41c1.8-25.7,3-51.4,4.4-77.1c0.3-5.7,0.2-11.5,0.4-17.2c0.4-13,0.8-26,1.2-39
		c0.1-1.7,0-3.5,0-5.3c-3.5,0.7-5.5,3.2-7.7,5.1c-34.2,30.3-68.9,60.2-104.4,89c-31.8,25.9-66.5,47-103.7,63.9
		c-26.4,12-54,19.3-83.2,19.9c-2.5,0-7,0.2-9.5-0.9c0,0,4.9-2.9,6.6-3.9c21.9-13.1,44-25.7,65.6-39.2
		c44.6-27.7,87.9-57.4,129.6-89.3c13.9-10.6,26.8-22.4,40.2-33.7c19.3-16.3,37-34.3,52.7-54.1c1.7-2.2,3.3-4.4,5-6.6
		c6.2-8.2,9.5-17.1,9-27.8c-0.8-17.4-0.3-32.4-1.1-52.4c-0.1-3.7-0.3-11.9-0.3-11.9c-32.6,7.4-65.9,14.9-98.9,22.4
		c-6.7-4-12.2-9.4-17.8-14.6c-2.4,1.4-1.6,3.3-1.7,4.9c-0.8,14.7-1.3,29.5-2.2,44.2c-1.2,18.2-4.2,36.2-8.8,53.9
		c-1.5,5.8-3.8,11.4-6.5,16.7c-1.7,3.3-3.6,6.5-6.8,8.3c-2.7-0.1-3.7-2-4.8-3.6c-6.1-9.8-12.2-19.5-18-29.4
		c-2.3-3.9-3.6-8.2-5.7-12.2c-3.1-6-2.8-12.2-1.2-18.3c5.9-22,9.7-44.4,14.5-66.6c4.9-22.4,9.9-44.9,13.8-67.5
		c0.6-3.5,1.1-7.5,5.4-9c3.1,1.2,3.9,3.9,4.8,6.5c5.6,15.5,10.7,31.2,13.3,47.5c0.9,5.4,1.4,10.8,2.2,17.1
		c39.7-9.4,78.7-18.3,118.2-28.4c0.2-22.8,0.1-45.7-1.8-69.3c-9.8,2.3-19.1,4.4-28.5,6.7c-10.4,2.5-20.9,4.9-31.3,7.8
		c-8.3,2.3-15.3,0.7-21.4-5.1c-4.9-4.6-9.2-9.7-11.6-17c30.4-7.9,60.9-14.2,91.3-23.3c-0.4-18.1-2.3-36-5.9-54
		c8.2-1.9,15.2,0,22.1,1.9c7.2,1.9,14.4,4.2,21.6,6.3c1.9,0.6,3.8,1.3,5.6,2.1c6,2.8,9.5,7,8.3,14.2c-0.8,4.9-0.8,9.9-1.1,14.6
		c2,1.5,3.7,0.3,5.3-0.1c15.7-4,31.5-7.8,47.2-12.1c6.9-1.9,12.6-0.6,18.1,3.7c9.2,7,14.8,12.9,18.3,20.5c-1.7,3-5.1,2.9-7.8,3.5
		c-15.8,3.7-31.6,7.3-47.5,10.9c-11.9,2.7-23.8,5.5-36.5,8.5c-3.1,23-3.4,46.3-4.4,70.6c8.1-1.8,15.6-3.3,22.9-5
		c35-8.3,69.9-16.6,104.9-25.1c7.8-1.9,15.4-4.4,23-6.7c3.8-1.2,7.2-1.2,10.8,0.9c13.7,7.8,27.8,14.8,41.1,23.3
		c6.8,4.4,8.4,8.7,4.5,15.8c-16.4,30-26.5,62.4-37.3,94.6c-7.1,21.4-18.2,40.5-34,56.7c-1.4,1.4-2.5,3.2-4.7,3.4
		c-6.6-4.4-35.7-47-39.8-58.3c0,0,4,0.2,5.7,0c8.7-0.9,14.9-5.4,18.5-13.3c6.1-13.2,12-26.4,16-40.3c4.1-14.1,7.3-28.5,10.9-42.8
		c0.2-0.7,0-1.5,0-2.5c-3-2.7-6.5-1.7-9.8-1c-18.1,3.8-36.2,7.6-54.2,11.5c-25.1,5.5-50.2,11.1-75.3,16.7c-1.2,0.3-2.3,0.8-4,1.4
		c-0.7,29.6-0.1,59.3,0,89.4c5.2,3.7,10.4,7.5,15.7,11.2c26.2,18,53.6,34,80.7,50.5c28.8,17.6,57.2,35.8,86.8,52
		c27.6,15.1,55.9,28.8,84.4,42.3c33.9,16,69,29.1,104.5,41c9.5,3.2,19,6.5,41.1,13.6c-6.9,2.6-13.4,3.9-19.8,5.2
		c-28.8,6.1-58,10.5-87.3,13.6c-6,0.6-12,0.7-18,1c-13.2,0.7-26.5,1-39.7,2c-12.6,1-22.9-3.7-32.7-10.8c-18.8-13.6-37.1-28-54.9-43
		c-45.6-38.3-89.3-78.6-132.3-119.7c-7.8-7.4-15.6-14.8-23.4-22.1C473.6,561.9,472.5,560,469.5,559.9z"/>
	<path d="M562.4,184.5c-14.5-2.7-29.7-2.6-42.2-12.7c-12.7,14-25.1,27.6-40.5,37.7c-2-1.9-0.9-3.3-0.4-4.6
		c12-33.2,20.9-67.2,28.3-101.7c3.6-17.1,7.4-34.2,9.5-51.5c0.7-5.7,0.6-11.5,0.8-17.2c0.1-2-0.6-4,0.6-5.8
		c7.2,1.4,39.1,18.9,51.5,28.3c4.7,3.6,6,5.1,8.6,10.4c-5.7,15.8-13.7,30.8-21.7,45.7c-7.8,14.7-16.8,28.7-26.3,44
		c9.5-2.3,17.7-4.3,25.8-6.4c30.7-7.9,61.4-15.7,92.1-23.8c6.5-1.7,12-1.1,17.7,2.7c8.3,5.7,16,12,22.7,19.4c1.5,1.6,3.4,3,3.3,6.5
		c-16.4,4.7-33.5,7.9-50.4,11.9c-17,4-34,7.8-51.3,11.7c-2,5.5-0.9,11.3-0.5,16.9c1.3,15.2,1.9,30.5,0.6,45.7
		c-1.1,12.5-5.2,24.4-10.8,35.6c-0.9,1.8-2,3.5-4.3,3.7c-2.4-0.8-3.2-3-4.4-4.8c-4.6-6.9-8.9-13.9-12.1-21.5
		c-2.7-6.6-4-13.1-2.6-20.3c2.4-13,4-26.1,5.8-39.2C562.5,191.8,563.1,188.4,562.4,184.5z"/>
	<path d="M327.8,307.5c-2.2-0.5-2.9-1.6-3.6-2.6c-5.2-8-9.8-16.2-13.6-24.9c-3.7-8.4-5-16.9-3.1-26.2c2.6-12.7,3.9-25.6,5.8-39.1
		c-10.5-1.1-20.9-0.8-30.3-6.6c-19.5,18.7-40.9,34.4-66.3,45.4c-0.6-3.1,1.2-4.7,2.3-6.4c10.7-16.3,20.1-33.4,29.2-50.6
		c9.5-18.2,16.5-37.4,22.2-57.1c1.3-4.6,2.9-9,4.4-13.6c6.1-19.3,12.1-38.6,13.4-58.4c2.4-1.9,3.9-0.7,5.4-0.1
		c14.7,6.4,28.8,13.9,42.1,22.7c9.7,6.4,11.3,10.9,8.4,22.2c-2.3,8.8-6.5,16.8-10.8,24.6c-8.4,15.1-17.1,29.9-27.5,43.8
		c-0.4,0.5-0.5,1.2-0.8,2c2.9,0.8,5.1-0.8,7.3-1.5c21.6-7,43.3-13.8,64.8-21.3c7.6-2.6,13.8-1.9,20.5,2.2c8.4,5.1,16,10.9,21.7,19
		c-2.7,3.7-6.5,4.9-10.3,6.1c-21.7,6.6-43.5,13.2-65.2,19.8c-2.1,0.6-4.4,0.9-6.4,2.7c-0.8,5.6,0.8,11.3,2,16.8
		c2.2,10.5,3.3,21.2,5,31.8c0.9,5.6-0.6,11-1.5,16.3c-1.6,9.7-5.1,18.8-9.7,27.5C332,304.4,330.7,306.8,327.8,307.5z"/>
</g>
</svg>
